{
  "title": "Our.Little.Sister.[Umimachi.Diary].2015.1080p.BRRip.x264.HORiZON",
  "uid": 13766212,
  "size": 1872195502,
  "categoryP": "video",
  "categoryS": "movies",
  "magnet": "?xt=urn:btih:8e0941a1a4954070e8f37d9f0cb2a0eabc1f32ba&amp;dn=Our.Little.Sister.%5BUmimachi.Diary%5D.2015.1080p.BRRip.x264.HORiZON&amp;tr=udp%3A%2F%2Ftracker.leechers-paradise.org%3A6969&amp;tr=udp%3A%2F%2Fzer0day.ch%3A1337&amp;tr=udp%3A%2F%2Fopen.demonii.com%3A1337&amp;tr=udp%3A%2F%2Ftracker.coppersurfer.tk%3A6969&amp;tr=udp%3A%2F%2Fexodus.desync.com%3A6969",
  "seeders": 47,
  "leechers": 1,
  "uploader": "noriegaRJ",
  "files": 1,
  "time": 1457240556,
  "description": "Title: Umimachi Diary aka Our Little Sister \r\n\r\nRelease: Our.Little.Sister.[Umimachi.Diary].2015.1080p.BRRip.x264.AC3.HORiZON-ArtSubs\r\n\r\n\r\nIMDB Link:                                                             \nhttp://www.imdb.com/title/tt3756788/\r\n\r\n\r\nPlot: Three sisters live together in their late grandmother's house in the city of Kamaruka. They have lived together since their dad left home for another woman. They have lived together since their mum imitated her husband by running off with another man... Sachi, 29, the oldest Koda sister, a nurse at the local hospital, acts as a substitute mother to Yoshino, 22, and Chika, 19. One day, the threesome learns of the death of their &quot;traitor&quot; father and it is only halfheartedly that they go to his funeral. But in Yamagata something unexpected happens: they meet their half-sister Suzu, 13, there and immediately fall for the spell of this exquisite young creature. Sensing that Yoko, her father's widow, will not be a fit guardian. Sachi invites Suzu to move to Kamakura home...\r\n\r\n\r\nENGLISH SUBTITLE IN MKV CONTAINER.\r\n\r\n\r\nGeneral\r\nComplete name                            : Our.Little.Sister.[Umimachi.Diary].2015.1080p.BRRip.x264.AC3.HORiZON-ArtSubs\r\nFormat                                   : Matroska\r\nFormat version                           : Version 2\r\nFile size                                : 1.74 GiB\r\nDuration                                 : 2h 6mn\r\nOverall bit rate                         : 1 968 Kbps\r\nWriting application                      : HandBrake 0.9.5\r\nWriting library                          : libmkv 0.6.4.1\r\n\r\nVideo\r\nID                                       : 1\r\nFormat                                   : AVC\r\nFormat/Info                              : Advanced Video Codec\r\nFormat profile                           :   \r\nFormat settings, CABAC                   : Yes\r\nFormat settings, ReFrames                : 4 frames\r\nCodec ID                                 : V_MPEG4/ISO/AVC\r\nDuration                                 : 2h 6mn\r\nBit rate                                 : 1 341 Kbps\r\nWidth                                    : 1 920 pixels\r\nHeight                                   : 1 040 pixels\r\nDisplay aspect ratio                     : 1.85:1\r\nFrame rate mode                          : Constant\r\nFrame rate                               : 23.976 fps\r\nColor space                              : YUV\r\nChroma subsampling                       : 4:2:0\r\nBit depth                                : 8 bits\r\nScan type                                : Progressive\r\nBits/(Pixel*Frame)                       : 0.028\r\nStream size                              : 1.14 GiB (65%)\r\nWriting library                          : x264 core 112\r\nLanguage                                 : English\r\nDefault                                  : Yes\r\nForced                                   : No\r\n\r\nAudio\r\nID                                       : 2\r\nFormat                                   : AC-3\r\nFormat/Info                              : Audio Coding 3\r\nMode extension                           : CM (complete main)\r\nFormat settings, Endianness              : Big\r\nCodec ID                                 : A_AC3\r\nDuration                                 : 2h 6mn\r\nBit rate mode                            : Constant\r\nBit rate                                 : 640 Kbps\r\nChannel count                            : 6 channels\r\nChannel positions                        : Front: L C R, Side: L R, LFE\r\nSampling rate                            : 48.0 KHz\r\nBit depth                                : 16 bits\r\nCompression mode                         : Lossy\r\nStream size                              : 581 MiB (33%)\r\nLanguage                                 : Japanese\r\nDefault                                  : Yes\r\nForced                                   : No\r\n\r\nText\r\nID                                       : 3\r\nFormat                                   : UTF-8\r\nCodec ID                                 : S_TEXT/UTF8\r\nCodec ID/Info                            : UTF-8 Plain Text\r\nLanguage                                 : English\r\nDefault                                  : No\r\nForced                                   : No\r\n\r\n\r\n\r\nThanks to those helping me seed. Leechers remember, the community depends on you. If nobody shares, the freebies go away. Remember, the only reason you can download this free movie is because others are generous enough to keep sharing it with you. If nobody shares, everybody loses, so even if its for an extra hour or two after you get it, remember, others want to see it too, and they can't without you.\r\n\r\n\r\nSEE MY OTHERS UPLOADS:                                                                                     \nhttp://thepiratebay.se/user/noriegaRJ\r\n\r\nAND SEE THIS ANOTHERS UPLOADS FROM &quot;HORiZON-ArtSubs&quot;:                                     \nhttp://thepiratebay.se/user/artsubs                                     \nhttp://thepiratebay.se/user/lletaif",
  "parsed": {
    "xt": "urn:btih:8e0941a1a4954070e8f37d9f0cb2a0eabc1f32ba",
    "dn": "Our.Little.Sister.[Umimachi.Diary].2015.1080p.BRRip.x264.HORiZON",
    "tr": [
      "udp://exodus.desync.com:6969",
      "udp://open.demonii.com:1337",
      "udp://tracker.coppersurfer.tk:6969",
      "udp://tracker.leechers-paradise.org:6969",
      "udp://zer0day.ch:1337"
    ],
    "infoHash": "8e0941a1a4954070e8f37d9f0cb2a0eabc1f32ba",
    "infoHashBuffer": {
      "type": "Buffer",
      "data": [
        142,
        9,
        65,
        161,
        164,
        149,
        64,
        112,
        232,
        243,
        125,
        159,
        12,
        178,
        160,
        234,
        188,
        31,
        50,
        186
      ]
    },
    "name": "Our.Little.Sister.[Umimachi.Diary].2015.1080p.BRRip.x264.HORiZON",
    "announce": [
      "udp://exodus.desync.com:6969",
      "udp://open.demonii.com:1337",
      "udp://tracker.coppersurfer.tk:6969",
      "udp://tracker.leechers-paradise.org:6969",
      "udp://zer0day.ch:1337"
    ],
    "urlList": []
  },
  "previous": 48,
  "peers": 160,
  "last_updated": "2016-12-25T07:32:37.576Z"
}